<?xml version="1.0" encoding="UTF-8" standalone="no"?>
<!-- Created with Inkscape (http://www.inkscape.org/) -->

<svg
   width="210mm"
   height="297mm"
   viewBox="0 0 210 297"
   version="1.1"
   id="svg3267"
   inkscape:version="1.1.1 (c3084ef, 2021-09-22)"
   sodipodi:docname="leg.svg"
   xmlns:inkscape="http://www.inkscape.org/namespaces/inkscape"
   xmlns:sodipodi="http://sodipodi.sourceforge.net/DTD/sodipodi-0.dtd"
   xmlns="http://www.w3.org/2000/svg"
   xmlns:svg="http://www.w3.org/2000/svg">
  <sodipodi:namedview
     id="namedview3269"
     pagecolor="#ffffff"
     bordercolor="#666666"
     borderopacity="1.0"
     inkscape:pageshadow="2"
     inkscape:pageopacity="0.0"
     inkscape:pagecheckerboard="0"
     inkscape:document-units="mm"
     showgrid="false"
     inkscape:zoom="0.76450354"
     inkscape:cx="-264.22376"
     inkscape:cy="-4.5781345"
     inkscape:window-width="1280"
     inkscape:window-height="687"
     inkscape:window-x="0"
     inkscape:window-y="25"
     inkscape:window-maximized="0"
     inkscape:current-layer="g4721" />
  <defs
     id="defs3264">
    <clipPath
       clipPathUnits="userSpaceOnUse"
       id="clipPath3301">
      <path
         d="m 2445,7556 h 5974 v 4415 H 2445 V 7556"
         id="path3299" />
    </clipPath>
    <clipPath
       clipPathUnits="userSpaceOnUse"
       id="clipPath4725">
      <path
         d="M 3088,2032 H 9678 V 12645 H 3088 V 2032"
         id="path4723" />
    </clipPath>
  </defs>
  <g
     inkscape:label="Layer 1"
     inkscape:groupmode="layer"
     id="layer1">
    <g
       id="g4721"
       clip-path="url(#clipPath4725)"
       transform="matrix(0.02116667,0,0,-0.02116667,-58.276168,172.31061)" />
    <path
       style="fill:#000000;stroke-width:0.346086"
       d="m -122.02662,123.4435 c -1.35199,-0.28809 -1.5789,-3.32116 -0.92473,-12.36094 3.82079,-52.798427 20.79189,-102.3792362 49.995186,-146.060209 7.691178,-11.504112 15.400936,-21.493098 25.233135,-32.692778 4.219551,-4.806416 18.049314,-18.741284 22.969997,-23.144575 3.082473,-2.758361 3.642241,-3.129333 4.239544,-2.809669 0.378489,0.202562 0.683762,0.479618 0.678383,0.615683 -0.0054,0.136062 -3.055591,4.374451 -6.778254,9.418642 -6.169239,8.359302 -20.50706,28.317301 -22.744964,31.660608 -1.143442,1.70824 -1.137986,2.083072 0.05548,3.813122 0.981747,1.423146 2.158719,1.911162 2.975134,1.233596 0.65564,-0.544132 0.99877,-0.0076 2.635194,4.120682 1.964706,4.956444 3.662579,11.0378 4.685112,16.780896 1.595969,8.963834 2.572866,13.101778 4.329972,18.340884 2.743464,8.18009287 3.290231,8.9350257 4.713795,6.5084254 l 0.763373,-1.3012421 0.01532,1.0731339 c 0.0084,0.59022057 0.19712,1.60251967 0.419317,2.24955367 0.616146,1.79423003 4.1657,7.57899503 4.650486,7.57899503 0.235328,0 0.530127,-0.4655677 0.655108,-1.0345941 l 0.227232,-1.0345938 1.143267,1.2122152 c 2.35797,2.5001778 11.444936,6.0560338 19.0962944,7.4726428 6.389352,1.182961 8.658744,2.552416 10.530573,6.354639 0.998556,2.028354 1.080222,2.447006 0.959641,4.919394 -0.207989,4.264586 -2.049288,7.12824 -5.897703,9.172319 -1.208804,0.642056 -2.03592903,0.790302 -4.42818,0.793681 l -2.941722,0.0042 -5.6547944,-3.078859 C -29.533576,22.845502 -46.509901,18.192647 -67.623262,17.572559 l -7.132934,-0.209489 -3.291411,4.637354 c -6.960434,9.806726 -15.861369,23.9283 -20.31533,32.230825 -2.016603,3.759107 -3.433253,7.637417 -4.395453,12.033281 -0.79192,3.617997 -0.83879,14.127012 -0.0779,17.477301 l 0.47159,2.076511 -2.53302,3.974925 c -3.37574,5.297376 -6.81887,11.624723 -9.62882,17.694613 -2.62408,5.66841 -3.0181,7.63001 -2.04459,10.17911 0.56313,1.47453 0.56109,1.60905 -0.0429,2.82391 -0.34882,0.7016 -1.03561,1.56856 -1.52621,1.92658 -0.98842,0.72133 -2.92139,1.23165 -3.88633,1.02602 z m 15.85305,-68.807492 3.46085,-6.76856 -0.81703,-0.664885 c -1.26933,-1.032957 -1.66151,-0.817594 -2.41303,1.325103 -0.38388,1.094493 -1.48835,4.217553 -2.45437,6.940129 -1.73497,4.889722 -2.00412,5.958588 -1.49684,5.944161 0.14276,-0.004 1.81695,-3.053236 3.72042,-6.775948 z m 6.416924,-12.625572 c 1.285351,-2.519498 5.822241,-10.300571 9.212157,-15.799475 2.611088,-4.235538 3.21001,-5.437748 2.838373,-5.697464 -0.259067,-0.181047 -1.313137,-0.729696 -2.342377,-1.219223 -2.241653,-1.066171 -1.801355,-1.466003 -5.228431,4.747866 -3.037399,5.507313 -7.954926,16.617339 -7.954926,17.972328 0,0.382751 1.65306,1.372576 2.32904,1.394584 0.23407,0.0076 0.74984,-0.621757 1.146164,-1.398616 z M -0.25578463,27.691763 c 1.64865603,-1.648651 0.634497,-3.995708 -1.72653297,-3.995708 -2.207411,0 -3.111098,2.748359 -1.357291,4.127904 1.197512,0.941964 2.046041,0.905589 3.08382397,-0.132196 z m 4.29653703,0.346982 c 0.538022,-0.648279 0.350099,-1.570051 -0.418809,-2.054272 -1.10967,-0.698818 -2.37631,0.704768 -1.857079,2.05786 0.248116,0.646578 1.738247,0.644229 2.275888,-0.0036 z m -9.47149,-2.789803 c 0.374321,-1.491426 -1.16939,-2.52667 -2.212391,-1.48367 -0.447664,0.447664 -0.560617,1.746618 -0.184578,2.122654 0.126896,0.1269 0.669014,0.230725 1.204703,0.230725 0.751623,0 1.023816,-0.198552 1.192266,-0.869709 z M -42.354577,11.428014 c 1.540912,-1.5409092 1.268764,-3.0559594 -1.588482,-8.8431538 -2.894642,-5.8629353 -5.445236,-9.8711792 -9.424194,-14.8100812 -1.914083,-2.375864 -2.815227,-3.771498 -2.705684,-4.190389 0.295701,-1.130753 -0.371055,-1.764639 -1.85614,-1.764639 -3.412239,0 -6.887321,3.492431 -6.887321,6.921703 0,1.375546 1.005456,3.878008 1.740712,4.332422 0.212683,0.131446 -0.848153,1.5561718 -2.52998,3.3978085 -4.695883,5.1421057 -8.865719,10.7979262 -8.333528,11.3033143 0.997108,0.9468926 16.890434,3.8771402 24.310287,4.4820792 4.967398,0.404989 6.178283,0.266984 7.27433,-0.829064 z"
       id="path5180" />
  </g>
</svg>
