<?xml version="1.0" encoding="UTF-8" standalone="no"?>
<!-- Created with Inkscape (http://www.inkscape.org/) -->

<svg
   width="210mm"
   height="297mm"
   viewBox="0 0 210 297"
   version="1.1"
   id="svg5"
   sodipodi:docname="drawing.svg"
   inkscape:version="1.1.1 (c3084ef, 2021-09-22)"
   xmlns:inkscape="http://www.inkscape.org/namespaces/inkscape"
   xmlns:sodipodi="http://sodipodi.sourceforge.net/DTD/sodipodi-0.dtd"
   xmlns="http://www.w3.org/2000/svg"
   xmlns:svg="http://www.w3.org/2000/svg">
  <sodipodi:namedview
     id="namedview7"
     pagecolor="#ffffff"
     bordercolor="#666666"
     borderopacity="1.0"
     inkscape:pageshadow="2"
     inkscape:pageopacity="0.0"
     inkscape:pagecheckerboard="0"
     inkscape:document-units="mm"
     showgrid="false"
     inkscape:zoom="0.55882846"
     inkscape:cx="-506.41658"
     inkscape:cy="280.05016"
     inkscape:window-width="1280"
     inkscape:window-height="685"
     inkscape:window-x="0"
     inkscape:window-y="25"
     inkscape:window-maximized="0"
     inkscape:current-layer="layer1" />
  <defs
     id="defs2" />
  <g
     inkscape:label="Layer 1"
     inkscape:groupmode="layer"
     id="layer1">
    <path
       style="fill:#000000;fill-opacity:1;stroke-width:0.638709"
       d="m -144.40712,25.987296 c -0.94572,-1.443358 -0.952,-1.740615 -0.0653,-3.093863 0.94558,-1.443146 1.37972,-1.513194 12.04926,-1.944132 21.37727,-0.863419 41.188119,-4.29458 61.269079,-10.611563 6.23853,-1.9624881 8.76989,-3.1074925 11.26886,-5.0971969 3.54026,-2.8188018 5.51838,-3.2218823 6.53051,-1.3307195 0.37629,0.7031244 0.66117,5.6140493 0.66117,11.3977824 0,9.033965 -0.12969,10.279724 -1.16803,11.219407 -1.06316,0.962152 -5.1334,1.057058 -45.33366,1.057058 h -44.165629 z m 3.89099,-1.596774 c 0,-1.170582 -0.38433,-1.651351 -1.43995,-1.80125 -0.86371,-0.122648 -1.59395,0.19685 -1.82478,0.798387 -0.63595,1.657241 0.2554,3.026963 1.82478,2.804109 1.05562,-0.149897 1.43995,-0.630666 1.43995,-1.801246 z m 86.807199,0.877107 c 0.50698,-1.321173 -0.69271,-2.793237 -2.27642,-2.793237 -1.36345,0 -2.14597,1.417287 -1.5869,2.874194 0.49291,1.28451 3.36242,1.224381 3.86332,-0.08096 z m -5.37171,-8.860979 c 0,-2.634677 -0.21557,-4.788663 -0.47903,-4.786636 -0.26347,0.002 -3.09483,0.839399 -6.29191,1.860825 -3.19708,1.021425 -10.167,2.958906 -15.48871,4.305511 -5.32171,1.346605 -9.67584,2.66488 -9.67584,2.929498 0,0.264619 7.18549,0.481125 15.96774,0.481125 h 15.96775 z m 5.06245,-9.8117683 c 0.45057,-0.8418885 0.39084,-1.5250638 -0.20452,-2.3392613 -1.46154,-1.998785 -4.27454,0.1598644 -3.34954,2.5703844 0.51541,1.3431321 2.79074,1.1951651 3.55406,-0.2311231 z"
       id="path1778" />
    <path
       style="fill:#000000;fill-opacity:1;stroke-width:2.41402"
       d="m -446.59385,196.8243 c -22.94976,-3.28303 -53.65639,-11.48769 -77.73451,-20.77028 -23.02312,-8.87587 -27.51896,-13.28732 -22.70621,-22.28002 2.26188,-4.22636 7.50275,-4.63287 78.98308,-6.12624 133.62586,-2.79171 189.75243,-2.17343 195.937,2.15842 5.8409,4.09111 7.20639,14.0934 2.34766,17.1965 -8.23241,5.25776 -39.77867,16.39752 -64.57505,22.80305 -22.89888,5.91535 -33.89205,7.33949 -62.76455,8.13099 -19.25181,0.52777 -41.52115,0.0272 -49.48742,-1.11242 z m 63.97155,-14.70792 c 15.26868,-1.39684 31.8349,-3.60761 36.81382,-4.91283 20.9191,-5.48393 7.35149,-7.01508 -62.16104,-7.01508 -43.96313,0 -71.21361,0.88814 -71.21361,2.32097 0,3.44263 15.20978,6.90523 41.03835,9.34263 12.61326,1.19029 24.01951,2.30813 25.34722,2.48409 1.32771,0.17596 14.90658,-0.82293 30.17526,-2.21978 z m -147.43374,-18.8365 c 3.14058,-5.86824 -2.02261,-13.2635 -8.40244,-12.03485 -4.87075,0.93802 -7.23975,7.1505 -4.97613,13.0494 1.90347,4.96037 10.53104,4.30611 13.37857,-1.01455 z m 257.27169,-3.98757 c 0,-6.08025 -0.94495,-7.209 -6.03506,-7.209 -4.52423,0 -6.23901,1.44247 -6.84976,5.76205 -0.86808,6.13945 3.31175,10.33087 9.26379,9.2895 2.26889,-0.39697 3.62103,-3.32546 3.62103,-7.84255 z"
       id="path1817"
       transform="scale(0.26458333)" />
    <path
       style="fill:#000000;fill-opacity:1;stroke-width:0.638709"
       d="m -132.47625,69.720823 c -0.70258,-0.178268 -3.14564,-1.075579 -5.42903,-1.994027 -5.61696,-2.259314 -6.94389,-3.990295 -4.7447,-6.189483 0.85771,-0.857707 3.27498,-1.003686 16.62015,-1.003686 h 15.61645 l 0.75014,1.646375 c 1.06609,2.3398 0.24343,3.258508 -4.92969,5.505268 -3.73368,1.621588 -5.4704,1.976019 -10.53815,2.15062 -3.33726,0.11498 -6.64259,0.0632 -7.34517,-0.115067 z m 14.21129,-4.461478 c 1.49299,-0.597977 2.71452,-1.331053 2.71452,-1.629056 0,-0.298003 -4.88613,-0.541824 -10.85807,-0.541824 -6.54046,0 -10.85806,0.244766 -10.85806,0.615545 0,0.338548 1.79637,1.203174 3.99194,1.921391 4.66298,1.525365 10.65199,1.379305 15.00967,-0.366056 z m -20.38781,-0.733783 c 0.88108,-1.713095 0.19469,-2.714516 -1.86057,-2.714516 -1.52581,0 -1.86291,0.269677 -1.86291,1.490324 0,0.819676 0.19162,1.681935 0.42581,1.916128 0.81765,0.81765 2.72735,0.416946 3.29767,-0.691936 z m 28.09475,-0.958064 c 0.1816,-1.5782 0.003,-1.756452 -1.75645,-1.756452 -1.62601,0 -1.95855,0.253042 -1.95855,1.490324 0,1.882526 0.56241,2.444932 2.2092,2.209199 0.88818,-0.127137 1.36812,-0.746448 1.5058,-1.943071 z"
       id="path1856" />
    <path
       style="fill:#000000;fill-opacity:1;stroke-width:2.41402"
       d="m -441.29387,337.77954 c -36.47142,-4.98535 -96.68894,-22.57841 -104.69931,-30.58879 -4.96494,-4.96494 -2.03922,-13.52893 5.61623,-16.43953 6.69092,-2.54388 280.56159,-3.21824 298.6756,-0.73544 9.39315,1.28748 11.48796,2.5375 12.76249,7.6157 2.26583,9.02774 -1.06378,12.20646 -19.70529,18.81227 -62.94933,22.30673 -130.67483,29.80727 -192.64972,21.33579 z m 105.74497,-14.27703 c 30.54661,-4.51596 35.00331,-5.60059 35.00331,-8.51878 0,-1.50478 -32.12081,-2.36803 -88.11176,-2.36803 -52.06168,0 -88.11176,0.90919 -88.11176,2.22221 0,1.22222 2.98735,2.81066 6.63855,3.52987 7.73297,1.52323 32.89009,5.85373 41.64186,7.16815 15.80183,2.37327 71.35357,1.15786 92.9398,-2.03342 z M -530.32073,301.1491 c -0.88071,-7.65412 -10.60113,-10.91368 -13.10302,-4.39385 -2.39006,6.2284 0.91745,11.03241 7.59571,11.03241 5.41709,0 6.16713,-0.90411 5.50731,-6.63856 z m 93.16634,2.71155 c 1.91615,-4.99341 -2.61814,-10.55712 -8.6038,-10.55712 -5.15322,0 -8.11075,5.35667 -5.99774,10.86309 1.86298,4.85485 12.70835,4.62759 14.60154,-0.30597 z m 205.75422,0.27523 c 1.82722,-4.76164 -3.30976,-10.83235 -9.16625,-10.83235 -5.15321,0 -8.11075,5.35667 -5.99773,10.86309 1.80972,4.71605 13.35144,4.69265 15.16398,-0.0307 z"
       id="path1895"
       transform="scale(0.26458333)" />
    <path
       style="fill:#000000;fill-opacity:1;stroke-width:2.41402"
       d="m -435.73076,424.96925 c -1.99157,-0.48044 -11.76835,-2.15304 -21.72619,-3.71687 -21.2604,-3.33887 -41.88127,-9.17948 -69.34262,-19.64047 -20.55591,-7.83046 -24.85766,-12.28245 -20.22751,-20.93395 2.10976,-3.94212 6.50317,-4.74845 33.32652,-6.11644 16.99302,-0.86665 82.10417,-1.58013 144.69144,-1.58551 106.7119,-0.009 114.13487,0.26538 119.25445,4.41096 4.09073,3.31248 5.07913,5.93584 3.94258,10.46422 -1.22886,4.89615 -5.30792,7.53153 -21.48659,13.88187 -10.98339,4.31113 -32.46236,11.08872 -47.73104,15.06132 -24.9064,6.48013 -32.3538,7.31676 -72.42062,8.13565 -24.56266,0.50201 -46.28885,0.51966 -48.28042,0.0392 z m 85.69774,-15.80905 c 21.30314,-2.94332 37.41732,-7.2299 37.41732,-9.95348 0,-2.86448 -165.89649,-2.72487 -167.66776,0.1411 -1.2635,2.04439 23.3026,8.41557 40.93167,10.61557 15.49333,1.93346 73.27194,1.4139 89.31877,-0.80319 z M -531.2618,390.90373 c 5.19587,-5.19587 0.75729,-13.70479 -6.60001,-12.65246 -6.06839,0.86798 -8.21873,7.84031 -3.98962,12.93607 3.71296,4.47384 5.8905,4.41553 10.58963,-0.28361 z m 119.27895,1.66819 c 1.77581,-1.1256 2.86211,-4.63947 2.41402,-7.8086 -1.16579,-8.24507 -12.53373,-8.24507 -13.69953,0 -1.09756,7.76251 4.8576,11.88297 11.28551,7.8086 z m 159.32537,0 c 1.7758,-1.1256 2.86211,-4.63947 2.41402,-7.8086 -0.60939,-4.30992 -2.32731,-5.76205 -6.81669,-5.76205 -6.82569,0 -9.40461,6.59553 -4.76486,12.18607 3.3383,4.02241 4.68508,4.22581 9.16753,1.38458 z"
       id="path1934"
       transform="scale(0.26458333)" />
    <path
       style="fill:#000000;fill-opacity:1;stroke-width:0.394751"
       d=""
       id="path2121"
       transform="scale(0.26458333)" />
    <path
       style="fill:#000000;fill-opacity:1;stroke-width:0.394751"
       d=""
       id="path2160"
       transform="scale(0.26458333)" />
    <path
       style="fill:#000000;fill-opacity:1;stroke-width:0.394751"
       d="m -266.85606,160.36725 c -0.003,-2.73083 -0.18206,-3.63834 -1.10694,-5.6247 -1.27218,-2.73225 -3.08172,-4.79496 -4.88562,-5.56916 -2.4282,-1.04215 -11.44987,-2.0905 -22.82017,-2.6518 -1.30268,-0.0643 2.21836,-0.15051 7.82453,-0.19156 8.60385,-0.063 10.28537,0.0177 10.78518,0.51749 0.32567,0.32567 1.28999,0.59212 2.14293,0.59212 0.85295,0 1.55081,0.15692 1.55081,0.34872 0,0.19179 0.31087,0.45309 0.69082,0.58066 1.675,0.56242 3.91624,2.61115 4.83506,4.41975 0.32531,0.64035 0.81382,1.30633 1.08556,1.47995 0.27175,0.17362 0.49409,1.0707 0.49409,1.9935 0,0.92279 0.2176,1.89541 0.48355,2.16137 0.38157,0.38157 0.38157,0.64685 0,1.25784 -0.26595,0.42587 -0.48355,1.48726 -0.48355,2.35866 0,0.8714 -0.13323,1.58414 -0.29607,1.58386 -0.16283,-2.7e-4 -0.29792,-1.46579 -0.30018,-3.2567 z"
       id="path2199"
       transform="scale(0.26458333)" />
    <path
       style="fill:#000000;fill-opacity:1;stroke-width:0.394751"
       d=""
       id="path2238"
       transform="scale(0.26458333)" />
  </g>
</svg>
